<svg width="1426" height="1053" viewBox="0 0 1426 1053" fill="none" xmlns="http://www.w3.org/2000/svg"
 >


<path d="M644 295C644 370.111 584.23 431 510.5 431C436.77 431 377 370.111 377 295C377 219.889 436.77 159 510.5 159C584.23 159 644 219.889 644 295Z" fill="url(#paint0_linear_136_2)"/>
<path d="M536 499.5C536 593.112 459.665 669 365.5 669C271.335 669 195 593.112 195 499.5C195 405.888 271.335 330 365.5 330C459.665 330 536 405.888 536 499.5Z" fill="url(#paint1_linear_136_2)"/>
<path d="M903 412C903 506.441 830.918 583 742 583C653.082 583 581 506.441 581 412C581 317.559 653.082 241 742 241C830.918 241 903 317.559 903 412Z" fill="url(#paint2_linear_136_2)"/>
<path d="M757 559C757 694.862 657.831 805 535.5 805C413.169 805 314 694.862 314 559C314 423.138 413.169 313 535.5 313C657.831 313 757 423.138 757 559Z" fill="url(#paint3_linear_136_2)"/>
<path d="M842 564C842 612.049 805.959 651 761.5 651C717.041 651 681 612.049 681 564C681 515.951 717.041 477 761.5 477C805.959 477 842 515.951 842 564Z" fill="url(#paint4_linear_136_2)"/>
<path d="M1156 324.5C1156 420.874 1081.23 499 989 499C896.768 499 822 420.874 822 324.5C822 228.126 896.768 150 989 150C1081.23 150 1156 228.126 1156 324.5Z" fill="url(#paint5_linear_136_2)"/>
<path d="M1426 544C1426 663.294 1324.14 760 1198.5 760C1072.86 760 971 663.294 971 544C971 424.706 1072.86 328 1198.5 328C1324.14 328 1426 424.706 1426 544Z" fill="url(#paint6_linear_136_2)"/>
<path d="M1269 341.5C1269 397.557 1225.57 443 1172 443C1118.43 443 1075 397.557 1075 341.5C1075 285.443 1118.43 240 1172 240C1225.57 240 1269 285.443 1269 341.5Z" fill="url(#paint7_linear_136_2)"/>
<path d="M1053 581.5C1053 647.498 993.678 701 920.5 701C847.322 701 788 647.498 788 581.5C788 515.502 847.322 462 920.5 462C993.678 462 1053 515.502 1053 581.5Z" fill="url(#paint8_linear_136_2)"/>
<path d="M832 202C832 217.464 819.464 230 804 230C788.536 230 776 217.464 776 202C776 186.536 788.536 174 804 174C819.464 174 832 186.536 832 202Z" fill="url(#paint9_linear_136_2)"/>
<path d="M251 338C251 353.464 238.464 366 223 366C207.536 366 195 353.464 195 338C195 322.536 207.536 310 223 310C238.464 310 251 322.536 251 338Z" fill="url(#paint10_linear_136_2)"/>
<path d="M844 715C844 730.464 831.464 743 816 743C800.536 743 788 730.464 788 715C788 699.536 800.536 687 816 687C831.464 687 844 699.536 844 715Z" fill="url(#paint11_linear_136_2)"/>
<path d="M405 741C405 756.464 392.464 769 377 769C361.536 769 349 756.464 349 741C349 725.536 361.536 713 377 713C392.464 713 405 725.536 405 741Z" fill="url(#paint12_linear_136_2)"/>
<path d="M1402 394C1402 409.464 1389.46 422 1374 422C1358.54 422 1346 409.464 1346 394C1346 378.536 1358.54 366 1374 366C1389.46 366 1402 378.536 1402 394Z" fill="url(#paint13_linear_136_2)"/>
<path d="M848 241C848 248.732 842.18 255 835 255C827.82 255 822 248.732 822 241C822 233.268 827.82 227 835 227C842.18 227 848 233.268 848 241Z" fill="url(#paint14_linear_136_2)"/>
<path d="M291 207.5C291 227.106 274.435 243 254 243C233.565 243 217 227.106 217 207.5C217 187.894 233.565 172 254 172C274.435 172 291 187.894 291 207.5Z" fill="url(#paint15_radial_136_2)"/>
<path d="M291 207.5C291 227.106 274.435 243 254 243C233.565 243 217 227.106 217 207.5C217 187.894 233.565 172 254 172C274.435 172 291 187.894 291 207.5Z" fill="url(#paint16_radial_136_2)"/>
<path d="M1426 261.5C1426 281.106 1409.43 297 1389 297C1368.57 297 1352 281.106 1352 261.5C1352 241.894 1368.57 226 1389 226C1409.43 226 1426 241.894 1426 261.5Z" fill="url(#paint17_radial_136_2)"/>
<path d="M1352 907.5C1352 927.106 1335.43 943 1315 943C1294.57 943 1278 927.106 1278 907.5C1278 887.894 1294.57 872 1315 872C1335.43 872 1352 887.894 1352 907.5Z" fill="url(#paint18_radial_136_2)"/>
<path d="M269 1017.5C269 1037.11 252.435 1053 232 1053C211.565 1053 195 1037.11 195 1017.5C195 997.894 211.565 982 232 982C252.435 982 269 997.894 269 1017.5Z" fill="url(#paint19_radial_136_2)"/>
<path d="M74 127.5C74 147.106 57.4345 163 37 163C16.5655 163 0 147.106 0 127.5C0 107.894 16.5655 92 37 92C57.4345 92 74 107.894 74 127.5Z" fill="url(#paint20_radial_136_2)"/>
<path d="M436 35.5C436 55.1061 419.435 71 399 71C378.565 71 362 55.1061 362 35.5C362 15.8939 378.565 0 399 0C419.435 0 436 15.8939 436 35.5Z" fill="url(#paint21_radial_136_2)"/>
<defs>
<linearGradient id="paint0_linear_136_2" x1="810.5" y1="150" x2="810.5" y2="805" gradientUnits="userSpaceOnUse">
<stop stop-color="#00DAE0"/>
<stop offset="1" stop-color="#007ED0"/>
</linearGradient>
<linearGradient id="paint1_linear_136_2" x1="810.5" y1="150" x2="810.5" y2="805" gradientUnits="userSpaceOnUse">
<stop stop-color="#00DAE0"/>
<stop offset="1" stop-color="#007ED0"/>
</linearGradient>
<linearGradient id="paint2_linear_136_2" x1="810.5" y1="150" x2="810.5" y2="805" gradientUnits="userSpaceOnUse">
<stop stop-color="#00DAE0"/>
<stop offset="1" stop-color="#007ED0"/>
</linearGradient>
<linearGradient id="paint3_linear_136_2" x1="810.5" y1="150" x2="810.5" y2="805" gradientUnits="userSpaceOnUse">
<stop stop-color="#00DAE0"/>
<stop offset="1" stop-color="#007ED0"/>
</linearGradient>
<linearGradient id="paint4_linear_136_2" x1="810.5" y1="150" x2="810.5" y2="805" gradientUnits="userSpaceOnUse">
<stop stop-color="#00DAE0"/>
<stop offset="1" stop-color="#007ED0"/>
</linearGradient>
<linearGradient id="paint5_linear_136_2" x1="810.5" y1="150" x2="810.5" y2="805" gradientUnits="userSpaceOnUse">
<stop stop-color="#00DAE0"/>
<stop offset="1" stop-color="#007ED0"/>
</linearGradient>
<linearGradient id="paint6_linear_136_2" x1="810.5" y1="150" x2="810.5" y2="805" gradientUnits="userSpaceOnUse">
<stop stop-color="#00DAE0"/>
<stop offset="1" stop-color="#007ED0"/>
</linearGradient>
<linearGradient id="paint7_linear_136_2" x1="810.5" y1="150" x2="810.5" y2="805" gradientUnits="userSpaceOnUse">
<stop stop-color="#00DAE0"/>
<stop offset="1" stop-color="#007ED0"/>
</linearGradient>
<linearGradient id="paint8_linear_136_2" x1="810.5" y1="150" x2="810.5" y2="805" gradientUnits="userSpaceOnUse">
<stop stop-color="#00DAE0"/>
<stop offset="1" stop-color="#007ED0"/>
</linearGradient>
<linearGradient id="paint9_linear_136_2" x1="810.5" y1="150" x2="810.5" y2="805" gradientUnits="userSpaceOnUse">
<stop stop-color="#00DAE0"/>
<stop offset="1" stop-color="#007ED0"/>
</linearGradient>
<linearGradient id="paint10_linear_136_2" x1="810.5" y1="150" x2="810.5" y2="805" gradientUnits="userSpaceOnUse">
<stop stop-color="#00DAE0"/>
<stop offset="1" stop-color="#007ED0"/>
</linearGradient>
<linearGradient id="paint11_linear_136_2" x1="810.5" y1="150" x2="810.5" y2="805" gradientUnits="userSpaceOnUse">
<stop stop-color="#00DAE0"/>
<stop offset="1" stop-color="#007ED0"/>
</linearGradient>
<linearGradient id="paint12_linear_136_2" x1="810.5" y1="150" x2="810.5" y2="805" gradientUnits="userSpaceOnUse">
<stop stop-color="#00DAE0"/>
<stop offset="1" stop-color="#007ED0"/>
</linearGradient>
<linearGradient id="paint13_linear_136_2" x1="810.5" y1="150" x2="810.5" y2="805" gradientUnits="userSpaceOnUse">
<stop stop-color="#00DAE0"/>
<stop offset="1" stop-color="#007ED0"/>
</linearGradient>
<linearGradient id="paint14_linear_136_2" x1="810.5" y1="150" x2="810.5" y2="805" gradientUnits="userSpaceOnUse">
<stop stop-color="#00DAE0"/>
<stop offset="1" stop-color="#007ED0"/>
</linearGradient>
<radialGradient id="paint15_radial_136_2" cx="0" cy="0" r="1" gradientUnits="userSpaceOnUse" gradientTransform="translate(713 526.5) rotate(33.1373) scale(963.143 1304.31)">
<stop offset="0.0208333" stop-color="#00DAE0"/>
<stop offset="1" stop-color="#00DAE0" stop-opacity="0"/>
</radialGradient>
<radialGradient id="paint16_radial_136_2" cx="0" cy="0" r="1" gradientUnits="userSpaceOnUse" gradientTransform="translate(713 526.5) rotate(33.1373) scale(963.143 1304.31)">
<stop offset="0.0208333" stop-color="#00DAE0"/>
<stop offset="1" stop-color="#00DAE0" stop-opacity="0"/>
</radialGradient>
<radialGradient id="paint17_radial_136_2" cx="0" cy="0" r="1" gradientUnits="userSpaceOnUse" gradientTransform="translate(713 526.5) rotate(33.1373) scale(963.143 1304.31)">
<stop offset="0.0208333" stop-color="#00DAE0"/>
<stop offset="1" stop-color="#00DAE0" stop-opacity="0"/>
</radialGradient>
<radialGradient id="paint18_radial_136_2" cx="0" cy="0" r="1" gradientUnits="userSpaceOnUse" gradientTransform="translate(713 526.5) rotate(33.1373) scale(963.143 1304.31)">
<stop offset="0.0208333" stop-color="#00DAE0"/>
<stop offset="1" stop-color="#00DAE0" stop-opacity="0"/>
</radialGradient>
<radialGradient id="paint19_radial_136_2" cx="0" cy="0" r="1" gradientUnits="userSpaceOnUse" gradientTransform="translate(713 526.5) rotate(33.1373) scale(963.143 1304.31)">
<stop offset="0.0208333" stop-color="#00DAE0"/>
<stop offset="1" stop-color="#00DAE0" stop-opacity="0"/>
</radialGradient>
<radialGradient id="paint20_radial_136_2" cx="0" cy="0" r="1" gradientUnits="userSpaceOnUse" gradientTransform="translate(713 526.5) rotate(33.1373) scale(963.143 1304.31)">
<stop offset="0.0208333" stop-color="#00DAE0"/>
<stop offset="1" stop-color="#00DAE0" stop-opacity="0"/>
</radialGradient>
<radialGradient id="paint21_radial_136_2" cx="0" cy="0" r="1" gradientUnits="userSpaceOnUse" gradientTransform="translate(713 526.5) rotate(33.1373) scale(963.143 1304.31)">
<stop offset="0.0208333" stop-color="#00DAE0"/>
<stop offset="1" stop-color="#00DAE0" stop-opacity="0"/>
</radialGradient>
</defs>

</svg>
