<svg width="380" height="800" viewBox="0 0 380 800" fill="none" xmlns="http://www.w3.org/2000/svg">
<path opacity="0.918" fill-rule="evenodd" clip-rule="evenodd" d="M206.288 0C215.621 0 224.955 0 234.288 0C229.818 0.986123 225.151 1.31946 220.288 1C220.288 85.3333 220.288 169.667 220.288 254C199.302 253.551 179.302 257.051 160.288 264.5C126.582 279.416 110.915 305.249 113.288 342C133.955 342 154.621 342 175.288 342C172.853 326.463 177.186 313.297 188.288 302.5C204.682 294.497 219.182 296.997 231.788 310C240.688 324.889 240.355 339.555 230.788 354C228.121 357.333 225.455 360.667 222.788 364C213.13 373.29 203.463 382.623 193.788 392C191.788 395.333 189.788 398.667 187.788 402C186.397 411.6 185.897 421.267 186.288 431C205.358 431.949 224.358 432.282 243.288 432C240.732 419.495 244.399 409.329 254.288 401.5C268.762 391.173 282.595 380.006 295.788 368C315.753 342.027 316.42 315.36 297.788 288C286.144 274.213 271.644 264.546 254.288 259C255.04 255.405 256.374 252.072 258.288 249C304.164 263.706 324.998 295.039 320.788 343C317.414 355.749 311.414 367.082 302.788 377C289.426 389.584 275.259 401.084 260.288 411.5C260.621 411.833 260.955 412.167 261.288 412.5C258.215 413.239 256.048 415.072 254.788 418C254.288 426.327 254.122 434.66 254.288 443C228.186 443.662 202.019 443.329 175.788 442C175.379 428.392 175.212 414.892 175.288 401.5C178.931 393.686 183.598 386.519 189.288 380C195.339 373.613 201.673 367.613 208.288 362C218.459 353.986 224.793 343.652 227.288 331C224.293 312 213.626 305.5 195.288 311.5C190.203 315.836 187.37 321.336 186.788 328C186.123 336.356 186.289 344.689 187.288 353C159.286 353.167 131.286 353 103.288 352.5C95.7336 305.687 113.734 272.687 157.288 253.5C173.771 247.42 190.771 243.92 208.288 243C209.288 162.336 209.621 81.6694 209.288 1C207.997 1.23731 206.997 0.903972 206.288 0Z" fill="#FEFEFD"/>
<path opacity="0.968" fill-rule="evenodd" clip-rule="evenodd" d="M286.288 87.9998C298.616 87.048 310.616 88.548 322.288 92.4998C342.531 101.879 349.698 117.379 343.788 139C341.038 144.652 337.205 149.486 332.288 153.5C325.668 157.73 319.501 162.563 313.788 168C312.409 172.536 311.909 177.203 312.288 182C301.955 182 291.621 182 281.288 182C281.122 175.658 281.288 169.325 281.788 163C287.688 155.094 294.354 147.761 301.788 141C309.723 130.598 308.556 121.431 298.288 113.5C290.834 111.071 284.667 112.905 279.788 119C278.174 124.108 277.008 129.275 276.288 134.5C265.955 135.167 255.621 135.167 245.288 134.5C241.834 120.533 245.834 108.867 257.288 99.4998C266.147 93.3956 275.813 89.5623 286.288 87.9998Z" fill="#FEFEFE"/>
<path opacity="0.973" fill-rule="evenodd" clip-rule="evenodd" d="M116.288 157C123.264 157.163 129.931 158.663 136.288 161.5C146.08 168.837 148.247 178.004 142.788 189C138.68 193.71 134.013 197.71 128.788 201C127.499 203.851 126.999 206.851 127.288 210C121.363 210.308 115.529 209.975 109.788 209C108.934 204.875 109.268 200.875 110.788 197C115.156 192.967 119.156 188.634 122.788 184C124.739 173.777 120.905 170.11 111.288 173C108.731 176.199 107.731 179.866 108.288 184C101.955 184 95.6206 184 89.2876 184C87.7546 172.897 92.0886 165.064 102.288 160.5C106.972 158.847 111.638 157.681 116.288 157Z" fill="#FEFEFD"/>
<path opacity="0.956" fill-rule="evenodd" clip-rule="evenodd" d="M281.288 196C291.621 196 301.955 196 312.288 196C312.288 205.667 312.288 215.333 312.288 225C301.955 225 291.621 225 281.288 225C281.288 215.333 281.288 205.667 281.288 196Z" fill="#FEFEFE"/>
<path opacity="0.871" fill-rule="evenodd" clip-rule="evenodd" d="M110.288 216C115.955 216 121.621 216 127.288 216C127.288 221.667 127.288 227.333 127.288 233C121.288 233 115.288 233 109.288 233C109.002 227.241 109.336 221.575 110.288 216Z" fill="#FEFEFE"/>
<path opacity="0.043" fill-rule="evenodd" clip-rule="evenodd" d="M239.288 278C240.621 278.667 240.621 278.667 239.288 278V278Z" fill="#FEFFFE"/>
<path opacity="0.964" fill-rule="evenodd" clip-rule="evenodd" d="M32.2876 299C41.2306 298.827 49.5636 300.993 57.2876 305.5C68.7646 315.741 70.2646 327.241 61.7876 340C56.2706 344.094 50.9376 348.427 45.7876 353C45.5696 355.926 45.0696 358.76 44.2876 361.5C37.6296 362 30.9626 362.166 24.2876 362C24.1216 357.321 24.2886 352.655 24.7876 348C29.0876 342.699 33.7536 337.699 38.7876 333C43.4126 322.823 40.2466 317.323 29.2876 316.5C26.5556 316.898 24.7226 318.398 23.7876 321C22.5886 324.226 22.0886 327.559 22.2876 331C14.9466 331.166 7.61364 331 0.287643 330.5C-1.47436 315.721 4.85864 306.054 19.2876 301.5C23.7526 300.626 28.0856 299.793 32.2876 299Z" fill="#FEFEFD"/>
<path opacity="0.043" fill-rule="evenodd" clip-rule="evenodd" d="M208.288 362C207.621 360.667 207.621 360.667 208.288 362V362Z" fill="#FEFFFE"/>
<path opacity="0.913" fill-rule="evenodd" clip-rule="evenodd" d="M24.2876 370C31.2876 370 38.2876 370 45.2876 370C45.2876 376.667 45.2876 383.333 45.2876 390C38.2876 390 31.2876 390 24.2876 390C24.2876 383.333 24.2876 376.667 24.2876 370Z" fill="#FEFEFD"/>
<path opacity="0.957" fill-rule="evenodd" clip-rule="evenodd" d="M333.288 399C346.155 397.789 357.322 401.456 366.788 410C372.744 419.694 372.744 429.361 366.788 439C361.638 443.573 356.305 447.906 350.788 452C349.472 455.188 348.972 458.522 349.288 462C342.288 462 335.288 462 328.288 462C327.405 455.5 328.572 449.5 331.788 444C336.455 440.667 340.455 436.667 343.788 432C347.512 421.07 343.679 415.903 332.288 416.5C330.121 417.333 328.621 418.833 327.788 421C326.835 423.932 326.335 426.932 326.288 430C318.955 430 311.621 430 304.288 430C303.094 417.029 308.428 407.862 320.288 402.5C324.707 401.148 329.04 399.981 333.288 399Z" fill="#FEFEFE"/>
<path opacity="0.886" fill-rule="evenodd" clip-rule="evenodd" d="M226.288 800C213.288 800 200.288 800 187.288 800C194.436 799.008 201.769 798.675 209.288 799C209.288 709.667 209.288 620.333 209.288 531C198.288 531 187.288 531 176.288 531C175.798 505.518 176.298 480.184 177.788 455C203.544 455.994 229.378 456.327 255.288 456C255.288 479.667 255.288 503.333 255.288 527C251.621 527 247.955 527 244.288 527C244.288 507.333 244.288 487.667 244.288 468C224.955 468 205.621 468 186.288 468C186.844 484.94 186.844 502.273 186.288 520C197.621 520 208.955 520 220.288 520C220.288 613 220.288 706 220.288 799C222.523 798.705 224.523 799.039 226.288 800Z" fill="#FEFEFE"/>
<path opacity="0.977" fill-rule="evenodd" clip-rule="evenodd" d="M81.2875 464C98.4985 461.483 114.499 464.649 129.288 473.5C144.156 486.228 147.323 501.394 138.788 519C135.657 523.133 132.157 526.966 128.288 530.5C122.698 534.545 117.198 538.712 111.788 543C109.553 547.723 108.719 552.723 109.288 558C98.9545 558 88.6205 558 78.2875 558C78.1215 551.658 78.2875 545.325 78.7875 539C80.3955 535.728 82.3955 532.728 84.7875 530C92.2115 524.578 98.2115 517.912 102.788 510C106.092 499.443 102.592 492.276 92.2875 488.5C83.8025 487.325 78.3025 490.825 75.7875 499C75.2885 502.652 75.1225 506.318 75.2875 510C63.9545 510 52.6205 510 41.2875 510C39.2405 493.931 44.9075 481.431 58.2875 472.5C65.6675 468.544 73.3345 465.711 81.2875 464Z" fill="#FEFEFE"/>
<path opacity="0.913" fill-rule="evenodd" clip-rule="evenodd" d="M328.288 470C335.288 470 342.288 470 349.288 470C349.288 476.667 349.288 483.333 349.288 490C342.613 490.166 335.946 490 329.288 489.5C328.31 483.09 327.977 476.59 328.288 470Z" fill="#FEFEFE"/>
<path opacity="0.982" fill-rule="evenodd" clip-rule="evenodd" d="M302.288 549C323.489 546.308 343.156 550.475 361.288 561.5C379.644 577.618 383.811 596.784 373.788 619C365.829 629.296 356.329 637.796 345.288 644.5C342.455 647.333 339.621 650.167 336.788 653C335.449 658.236 334.949 663.57 335.288 669C322.288 669 309.288 669 296.288 669C296.122 660.993 296.288 652.993 296.788 645C298.54 641.828 300.54 638.828 302.788 636C310.788 629.333 318.121 622 324.788 614C331.927 602.203 330.427 591.703 320.288 582.5C305.502 576.302 296.002 580.802 291.788 596C291.289 599.986 291.122 603.986 291.288 608C276.955 608 262.621 608 248.288 608C246.309 583.162 256.643 565.662 279.288 555.5C286.869 552.578 294.536 550.411 302.288 549Z" fill="#FEFEFE"/>
<path opacity="0.914" fill-rule="evenodd" clip-rule="evenodd" d="M78.2876 571C88.6266 570.834 98.9596 571 109.288 571.5C110.273 580.917 110.606 590.417 110.288 600C99.6206 600 88.9546 600 78.2876 600C78.2876 590.333 78.2876 580.667 78.2876 571Z" fill="#FEFEFE"/>
<path opacity="0.961" fill-rule="evenodd" clip-rule="evenodd" d="M296.288 687C309.292 686.833 322.292 687 335.288 687.5C336.276 699.586 336.61 711.753 336.288 724C322.955 724 309.621 724 296.288 724C296.288 711.667 296.288 699.333 296.288 687Z" fill="#FEFEFE"/>
</svg>
